<svg data-v-0dd9719b="" version="1.0" xmlns="http://www.w3.org/2000/svg" xmlns:xlink="http://www.w3.org/1999/xlink" width="100%" height="100%" viewBox="0 0 340.000000 250.000000" preserveAspectRatio="xMidYMid meet" color-interpolation-filters="sRGB" style="margin: auto;"> <rect data-v-0dd9719b="" x="0" y="0" width="100%" height="100%" fill="#fff" fill-opacity="1" class="background"></rect> <rect data-v-0dd9719b="" x="0" y="0" width="100%" height="100%" fill="url(#watermark)" fill-opacity="1" class="watermarklayer"></rect> <g data-v-0dd9719b="" fill="#333" class="icon-text-wrapper icon-svg-group iconsvg" transform="translate(49.025001525878906,94.58637428283691)"><g class="iconsvg-imagesvg" transform="translate(0,0)"><g><rect fill="#333" fill-opacity="0" stroke-width="2" x="0" y="0" width="60" height="60.8272506082725" class="image-rect"></rect> <svg x="0" y="0" width="60" height="60.8272506082725" filtersec="colorsb1192657694" class="image-svg-svg primary" style="overflow: visible;"><svg xmlns="http://www.w3.org/2000/svg" viewBox="-0.01667151227593422 -0.0010506667895242572 98.62667083740234 99.98663330078125"><path d="M4.5 70.71a49.73 49.73 0 0 0 13.39 17.61L97.16 46.7z" fill="#2a3d8f"></path><path d="M19.15 89.34a50 50 0 0 0 79.46-27.68z" fill="#272660"></path><path d="M76.66 7.71A50 50 0 0 0 0 51.29l82.29-39.45a51 51 0 0 0-5.63-4.13z" fill="#29aae1"></path><path d="M88 25L.06 52.31A50.25 50.25 0 0 0 4.15 70z" fill="#1f76bb"></path></svg></svg> <!----></g></g> <g transform="translate(67,6.058626174926758)"><g data-gra="path-name" fill-rule="" class="tp-name iconsvg-namesvg"><g transform="scale(1)"><g><path d="M21.51-6.9L33.34-6.9 33.34 0 19.83 0Q16.01 0 13.98-0.41L13.98-0.41Q6.84-1.8 3.83-8.35L3.83-8.35Q1.86-12.76 1.86-19.25L1.86-19.25Q1.86-27.02 4.87-31.89L4.87-31.89Q7.07-35.43 10.76-37.06 14.44-38.68 20.24-38.68L20.24-38.68 33.34-38.68 33.34-31.78 21.17-31.78Q15.66-31.78 13.11-28.82L13.11-28.82Q10.96-26.39 10.96-20.01L10.96-20.01Q10.96-11.42 14.27-8.76L14.27-8.76Q16.59-6.9 21.51-6.9L21.51-6.9ZM38.91-38.68L46.68-38.68 46.68-28.24 54.63-28.24Q58.16-28.24 60.16-27.69 62.16-27.14 63.56-25.75L63.56-25.75Q66.22-23.31 66.22-17.57L66.22-17.57 66.22 0 58.45 0 58.45-16.06Q58.45-18.32 58.25-19.28 58.05-20.24 57.41-20.93L57.41-20.93Q56.25-22.15 53-22.21L53-22.21 46.68-22.21 46.68 0 38.91 0 38.91-38.68ZM83.45-17.16L92.96-17.16Q92.96-20.12 91.77-21.17 90.58-22.21 87.04-22.21L87.04-22.21 73.94-22.21 73.94-28.24 87.04-28.24Q90.58-28.24 91.91-28.1 93.25-27.95 94.64-27.55L94.64-27.55Q101.08-25.11 100.73-15.89L100.73-15.89 100.73 0 84.38 0Q79.97 0 78.29-0.26 76.6-0.52 75.33-1.33L75.33-1.33Q71.91-3.65 71.91-8.35L71.91-8.35Q71.91-11.19 73.27-13.42 74.63-15.66 76.89-16.47L76.89-16.47Q78.87-17.16 83.45-17.16L83.45-17.16ZM92.96-6.03L92.96-11.13 84.03-11.13 82.69-11.13Q81.36-11.13 80.58-10.44 79.79-9.74 79.79-8.52L79.79-8.52Q79.79-7.19 80.75-6.61 81.71-6.03 84.03-6.03L84.03-6.03 92.96-6.03ZM107.98 0L107.98-28.24 119.46-28.24Q123-28.24 124.94-27.75 126.88-27.26 128.16-26.1L128.16-26.1Q129.43-24.94 129.95-23.2 130.48-21.46 130.48-18.21L130.48-18.21 130.48-15.48 123-15.48 123-16.99Q123-20.01 121.95-21.11 120.91-22.21 117.95-22.21L117.95-22.21 115.75-22.21 115.75 0 107.98 0ZM142.89-38.68L142.89 0 135.12 0 135.12-38.68 142.89-38.68ZM162.66-6.03L169.04-6.03 169.04-28.24 176.81-28.24 176.81-0.58Q176.81 4.93 173.91 7.48 171.01 10.03 164.69 10.03L164.69 10.03 150.83 10.03 150.83 4 164.69 4Q167.18 4 167.94 3.48L167.94 3.48Q168.52 3.13 168.69 2.58 168.87 2.03 169.04 0L169.04 0 162.14 0Q150.19 0.29 150.83-12.47L150.83-12.47 150.83-28.24 158.6-28.24 158.6-13.22Q158.6-8.81 159.38-7.42 160.17-6.03 162.66-6.03L162.66-6.03Z" transform="translate(-1.8600000143051147, 38.68000030517578)"></path></g> <!----> <!----> <!----> <!----> <!----> <!----> <!----></g></g> <!----></g></g><defs v-gra="od"></defs></svg>